<svg viewBox="0 0 64 64" xml:space="preserve" xmlns="http://www.w3.org/2000/svg" enable-background="new 0 0 64 64"><circle cx="32" cy="46" r="5" fill="#005987" class="fill-000000"></circle><path d="M41 55c0-2.209-1.612-4-3.6-4H26.6c-1.988 0-3.6 1.791-3.6 4v7h18v-7zM32.93 26.032C39.698 26.511 45 32.206 45 39h2c0-7.839-6.119-14.411-13.93-14.962l-.14 1.994zM17.346 35.786A15.023 15.023 0 0 0 17 39h2c0-.94.101-1.878.3-2.786l-1.954-.428zM52.504 26.521A23.984 23.984 0 0 1 56 39h2c0-4.775-1.31-9.45-3.788-13.521l-1.708 1.042zM6 39h2c0-13.233 10.767-24 24-24 1.953 0 3.891.234 5.76.695l.479-1.941A26.05 26.05 0 0 0 32 13C17.664 13 6 24.663 6 39zM32 3c-3.874 0-7.681.611-11.315 1.816l.63 1.898A33.895 33.895 0 0 1 32 5c11.854 0 23.022 6.313 29.144 16.476l1.713-1.031C56.375 9.685 44.552 3 32 3zM5.771 17.358l-1.542-1.273a36.087 36.087 0 0 0-3.085 4.359l1.714 1.031a34.047 34.047 0 0 1 2.913-4.117zM49 54h10a1 1 0 0 0 1-1V43a1 1 0 0 0-1-1H49a1 1 0 0 0-1 1v3l-6 4h6v3a1 1 0 0 0 1 1zM14 42H4a1 1 0 0 0-1 1v10a1 1 0 0 0 1 1h10a1 1 0 0 0 1-1v-3h6l-6-4v-3a1 1 0 0 0-1-1z" fill="#005987" class="fill-000000"></path><path d="M47 11a8 8 0 1 0 0 16 8 8 0 0 0 0-16zm0 15a6.974 6.974 0 0 1-4.99-2.095A3.994 3.994 0 0 1 46 20h1a3 3 0 1 1 0-6 3 3 0 0 1 0 6h1a3.994 3.994 0 0 1 3.99 3.905A6.974 6.974 0 0 1 47 26zM32 28a8 8 0 1 0-16 0 8 8 0 0 0 16 0zm-9 1h1a3 3 0 1 1 0-6 3 3 0 0 1 0 6h1a3.994 3.994 0 0 1 3.99 3.905A6.974 6.974 0 0 1 24 35a6.974 6.974 0 0 1-4.99-2.095A3.994 3.994 0 0 1 23 29zM12 2a8 8 0 1 0 0 16 8 8 0 0 0 0-16zm0 15a6.974 6.974 0 0 1-4.99-2.095A3.994 3.994 0 0 1 11 11h1a3 3 0 1 1 0-6 3 3 0 0 1 0 6h1a3.994 3.994 0 0 1 3.99 3.905A6.974 6.974 0 0 1 12 17z" fill="#005987" class="fill-000000"></path></svg>