<svg viewBox="0 0 512 512" xmlns="http://www.w3.org/2000/svg"><path d="M256.025 178.752c43.681 0 79.091-35.41 79.091-79.091s-35.41-79.091-79.09-79.091-79.092 35.41-79.092 79.09 35.41 79.092 79.091 79.092Zm9.887-20.593v-38.725l26.823 26.824a59.049 59.049 0 0 1-26.823 11.9Zm49.432-58.498c0 11.313-3.167 21.886-8.663 30.882l-40.77-40.768-.01-48.614c28.06 4.702 49.442 29.104 49.442 58.5Zm-96.029 46.597 26.824-26.824.006 38.726a59.049 59.049 0 0 1-26.83-11.902ZM246.14 41.163v48.612l-40.769 40.768c-5.496-8.996-8.663-19.57-8.663-30.882 0-29.392 21.377-53.791 49.432-58.498ZM443.509 391.986l-86.293-201.56a4 4 0 0 0-3.677-2.424V188H132.515a4 4 0 0 0-3.484 2.035c-2.07 3.67-54.696 122.78-60.69 136.349A3.999 3.999 0 0 0 72 332h28v68c0 15.44 12.56 28 28 28h24c11.028 0 20 8.972 20 20v48h8v-48c0-15.44-12.56-28-28-28h-24c-11.028 0-20-8.972-20-20v-72a4 4 0 0 0-4-4H78.14c21.394-48.416 51.02-115.264 56.894-128h210.74c-24.404 36.387-28.954 83.01-11.596 123.553 18.414 43.012 58.731 72.894 105.218 77.983a4.001 4.001 0 0 0 4.113-5.55Z" fill="#d7222d" class="fill-000000"></path><path d="M301.171 421.171A4.001 4.001 0 0 0 300 424v72h8v-70.352a222.118 222.118 0 0 0 40.136-55.905l-7.142-3.604a214.118 214.118 0 0 1-39.823 55.032ZM125.942 27.43l4.116-6.86 40 24-4.116 6.86zM87.558 75.975l.883-7.95 72 8-.883 7.95zM79.216 124.08l79.999-16.004 1.57 7.844-80 16.004zM93.544 188.842l72-55.999 4.911 6.314-72 56zM341.942 44.57l40-24 4.116 6.86-40 24zM351.558 76.025l72-8 .883 7.95-72 8zM351.216 115.922l1.569-7.844 80 16-1.57 7.844zM341.544 139.157l4.911-6.314 72 56-4.91 6.314z" fill="#d7222d" class="fill-000000"></path></svg>