<svg viewBox="0 0 512 512" xmlns="http://www.w3.org/2000/svg"><path d="M434.5 230.5h-12.75v-51.02a16.98 16.98 0 0 0-16.98-16.98h-17.043a16.977 16.977 0 0 0-16.977 16.98v153.043a16.977 16.977 0 0 0 16.977 16.977h17.044a16.98 16.98 0 0 0 16.979-16.977V281.5h12.75a25.5 25.5 0 0 0 0-51ZM328.215 145.5h-16.932a17.035 17.035 0 0 0-17.033 17.035V230.5h-76.5v-67.965a17.037 17.037 0 0 0-17.035-17.035h-16.932a17.035 17.035 0 0 0-17.033 17.035v186.932a17.034 17.034 0 0 0 17.033 17.033h16.932a17.035 17.035 0 0 0 17.035-17.033V281.5h76.5v67.967a17.034 17.034 0 0 0 17.033 17.033h16.932a17.035 17.035 0 0 0 17.035-17.033V162.535a17.037 17.037 0 0 0-17.035-17.035ZM124.27 162.5h-17.043a16.977 16.977 0 0 0-16.977 16.98v51.02H77.5a25.5 25.5 0 0 0 0 51h12.75v51.023a16.977 16.977 0 0 0 16.977 16.977h17.044a16.98 16.98 0 0 0 16.979-16.977V179.479a16.98 16.98 0 0 0-16.98-16.979Z" fill="#d7222d" class="fill-000000"></path></svg>