<svg viewBox="0 0 64 64" xml:space="preserve" xmlns="http://www.w3.org/2000/svg" enable-background="new 0 0 64 64"><path d="M51.335 28.53c4.09 0 7.05-5.62 7.05-9.4 0-3.89-3.16-7.05-7.05-7.05-3.88 0-7.05 3.16-7.05 7.05 0 3.78 2.96 9.4 7.05 9.4zM56.735 28.78h-2.62l-2.78 5.3-2.77-5.3h-2.63c-3.9 0-7.09 3.1-7.22 6.96a6.52 6.52 0 0 0-1.33-.13h-2.63l-2.77 5.3-2.77-5.3h-2.63c-.44 0-.88.04-1.3.12-.14-3.86-3.33-6.95-7.22-6.95h-2.63l-2.77 5.3-2.77-5.3h-2.63c-3.99 0-7.24 3.25-7.24 7.24v9.07h19.32v6.83h25.28v-6.83h19.35v-9.07c0-3.99-3.25-7.24-7.24-7.24zm-14.11 21.14h-21.28v-7.07c0-2.89 2.35-5.24 5.24-5.24h1.41l3.99 7.61 3.99-7.61h1.41c2.89 0 5.24 2.35 5.24 5.24v7.07zM12.715 28.53c4.09 0 7.05-5.62 7.05-9.4 0-3.89-3.16-7.05-7.05-7.05s-7.05 3.16-7.05 7.05c0 3.78 2.96 9.4 7.05 9.4z" fill="#005987" class="fill-000000"></path><path d="M31.985 35.357c4.09 0 7.05-5.617 7.05-9.404 0-3.887-3.163-7.05-7.05-7.05s-7.05 3.163-7.05 7.05c0 3.787 2.96 9.404 7.05 9.404zm0-14.453a5.055 5.055 0 0 1 5.05 5.049c0 3.096-2.545 7.404-5.05 7.404s-5.05-4.308-5.05-7.404a5.055 5.055 0 0 1 5.05-5.05z" fill="#005987" class="fill-000000"></path></svg>