<svg viewBox="0 0 512 512" xmlns="http://www.w3.org/2000/svg"><g data-name="/ FILLED_OUTLINE"><path d="M432 184H80a16 16 0 0 0-16 16v256h384V200a16 16 0 0 0-16-16Z" fill="#dfdfdf" class="fill-dfdfdf"></path><path d="M319.945 456H448V334.9A305.244 305.244 0 0 1 319.945 456Z" fill="#bebebe" class="fill-bebebe"></path><path d="M24 448v24a16 16 0 0 0 16 16h392v-40Z" fill="#bebebe" class="fill-bebebe"></path><path d="M184.103 488H432v-40h-97.1a302.497 302.497 0 0 1-150.797 40Z" fill="#a2a2a2" class="fill-a2a2a2"></path><rect height="248" rx="24" width="272" x="104" y="168" fill="#005987" class="fill-00659d"></rect><path d="M384 224H168a16 16 0 0 0-16 16v152a24 24 0 0 1-24 24h256a24 24 0 0 0 24-24V248a24 24 0 0 0-24-24Z" fill="#005987" class="fill-338dbf"></path><path d="M312 72a31.844 31.844 0 0 0-18.478 5.882 40.001 40.001 0 1 0-77.258-18.425A40 40 0 1 0 200 136h112a32 32 0 0 0 0-64Z" fill="#005987" class="fill-0071af"></path><path d="M239.589 96h-.671a7.691 7.691 0 0 1-7.53-6.232 32.036 32.036 0 0 0-13.124-20.054 7.691 7.691 0 0 1-2.697-9.395l.268-.614A7.695 7.695 0 0 1 227.29 56.5a48.044 48.044 0 0 1 19.82 30.286A7.695 7.695 0 0 1 239.59 96ZM281.594 111.849a7.666 7.666 0 0 1-9.59-7.269q-.004-.29-.004-.58a40.019 40.019 0 0 1 7.201-22.892 7.67 7.67 0 0 1 12.032-.656l.447.507a7.691 7.691 0 0 1 .537 9.456A24.01 24.01 0 0 0 288 104v.061a7.757 7.757 0 0 1-5.755 7.62Z" fill="#005987" class="fill-00659d"></path><path d="m256 355.313-29.657-29.656 11.314-11.314L256 332.687l66.343-66.344 11.314 11.314L256 355.313z" fill="#005987" class="fill-cbe2ef"></path><path d="M330.282 77.743A111.97 111.97 0 0 1 232 136h80a31.996 31.996 0 0 0 18.282-58.257Z" fill="#005987" class="fill-006095"></path><path d="M293.657 170.343 256 132.687l-37.657 37.656 11.314 11.314L248 163.314V232h16v-68.686l18.343 18.343 11.314-11.314z" fill="#ec9090" class="fill-ec9090"></path><path d="M216 416h168a24 24 0 0 0 24-24V248a24.022 24.022 0 0 0-.825-6.242C398.212 339.47 316.05 416 216 416Z" fill="#005987" class="fill-2c78a3"></path><circle cx="416" cy="416" r="72" fill="#00b378" class="fill-00b378"></circle><path d="m389.657 453.657-11.314-11.314L408 412.687V368h16v51.313l-34.343 34.344z" fill="#bdecdc" class="fill-bdecdc"></path><path d="M386.428 481.643a71.993 71.993 0 0 0 95.215-95.215 144.325 144.325 0 0 1-95.215 95.215Z" fill="#009966" class="fill-009966"></path><path d="M200 144h32v-16h-32a32 32 0 1 1 32-32h16a48.005 48.005 0 0 0-22.759-40.803 31.998 31.998 0 1 1 61.455 17.85 40.007 40.007 0 0 0-13.435 40.947l15.494-3.988A24.005 24.005 0 1 1 312 128h-32v16h32a40 40 0 1 0-8.02-79.191c.004-.27.02-.538.02-.809a47.996 47.996 0 0 0-93.634-14.86A47.997 47.997 0 1 0 200 144ZM456 346.763V200a24.027 24.027 0 0 0-24-24h-49.376A24.038 24.038 0 0 0 360 160h-56v16h56a8.01 8.01 0 0 1 8 8v32h-88v16h112a8.01 8.01 0 0 1 8 8v97.61A80.18 80.18 0 0 0 336.4 408H155.696A31.792 31.792 0 0 0 160 392V240a8.01 8.01 0 0 1 8-8h64v-16h-64a24.027 24.027 0 0 0-24 24v152a16 16 0 0 1-32 0V184a8.01 8.01 0 0 1 8-8h88v-16h-88a24.038 24.038 0 0 0-22.624 16H80a24.027 24.027 0 0 0-24 24v240H16v32a24.027 24.027 0 0 0 24 24h376a79.972 79.972 0 0 0 40-149.237ZM392 216h-8v-24h48a8.01 8.01 0 0 1 8 8v139.683A79.714 79.714 0 0 0 416 336v-96a24.027 24.027 0 0 0-24-24ZM72 200a8.01 8.01 0 0 1 8-8h16v200a32.037 32.037 0 0 0 32 32h208.4a79.429 79.429 0 0 0 3.283 16H72ZM40 480a8.01 8.01 0 0 1-8-8v-16h314.763a80.596 80.596 0 0 0 21.292 24Zm376 0a64 64 0 1 1 64-64 64.072 64.072 0 0 1-64 64Z" fill="#000000" class="fill-000000"></path><path d="m237.657 314.343-11.314 11.314L256 355.313l77.657-77.656-11.314-11.314L256 332.687l-18.343-18.344zM293.657 170.343 256 132.687l-37.657 37.656 11.314 11.314L248 163.314V232h16v-68.686l18.343 18.343 11.314-11.314zM408 412.687l-29.657 29.656 11.314 11.314L424 419.313V368h-16v44.687z" fill="#000000" class="fill-000000"></path></g></svg>